<?xml version="1.0" encoding="UTF-8" standalone="no"?>
<!-- Uploaded to: SVG Repo, www.svgrepo.com, Generator: SVG Repo Mixer Tools -->

<svg
   width="48"
   height="42"
   enable-background="new 0 0 32 32"
   version="1.1"
   viewBox="0 0 1.92 1.68"
   xml:space="preserve"
   id="svg23"
   sodipodi:docname="replace.svg"
   inkscape:version="1.4.4 (dcaf3e7, 2026-05-05)"
   xmlns:inkscape="http://www.inkscape.org/namespaces/inkscape"
   xmlns:sodipodi="http://sodipodi.sourceforge.net/DTD/sodipodi-0.dtd"
   xmlns="http://www.w3.org/2000/svg"
   xmlns:svg="http://www.w3.org/2000/svg"><sodipodi:namedview
   id="namedview23"
   pagecolor="#ffffff"
   bordercolor="#000000"
   borderopacity="0.25"
   inkscape:showpageshadow="2"
   inkscape:pageopacity="0.0"
   inkscape:pagecheckerboard="0"
   inkscape:deskcolor="#d1d1d1"
   inkscape:zoom="9.6071429"
   inkscape:cx="26.802974"
   inkscape:cy="17.643123"
   inkscape:window-width="1920"
   inkscape:window-height="1009"
   inkscape:window-x="-8"
   inkscape:window-y="-8"
   inkscape:window-maximized="1"
   inkscape:current-layer="svg23" /><defs
   id="defs21"><marker
     id="Pencil"
     markerHeight="25.28585625"
     markerWidth="25.28585625"
     orient="auto"
     preserveAspectRatio="xMidYMid"
     refX="0.5"
     refY="24.8"
     viewBox="0 0 25.285856 25.285856"><g
       transform="rotate(-45 9.8961 24.302)"
       id="g21"><path
         d="m11.396 16.291-8.5569 1.7088 8.4431-4.6203z"
         fill="#ffeadb"
         id="path1" /><path
         d="m11.865 20h14.242v3h-14.242c-0.96644-0.98418-0.96095-2.0913 0-3z"
         fill="context-stroke"
         id="path2" /><path
         d="m11.807 16h14.3v4h-14.3c-1.2118-1.1982-1.2217-2.7801 0-4z"
         fill="context-stroke"
         stroke-width="0"
         id="path3" /><path
         d="m10.839 18h-8l9-2.2z"
         fill="#ffdbc2"
         id="path4" /><path
         d="m11.079 22.57-8.2406-4.5697 8.7469 1.8734z"
         fill="#f5ad7a"
         id="path5" /><path
         d="m11.839 20.2-9-2.2 8-0.2z"
         fill="#fcc39c"
         id="path6" /><path
         d="m11.852 13h14.255v3h-14.255c-1.0475-0.94143-0.99394-2.0699 0-3z"
         fill="context-stroke"
         stroke-width="0"
         id="path7" /><path
         d="m11.839 23-9-5 9-5"
         fill="none"
         stroke="#000"
         stroke-linejoin="round"
         stroke-width=".9"
         id="path8" /><path
         d="m11.807 16h14.3v4h-14.3c-1.2118-1.1982-1.2217-2.7801 0-4z"
         fill="none"
         stroke="#000"
         stroke-linejoin="round"
         stroke-width=".9"
         id="path9" /><path
         d="m5.8389 19.667-3-1.6666 3-1.6666z"
         id="path10" /><path
         d="m11.801 13h13.306v3h-13.306c-0.97781-0.94143-0.92776-2.0699 0-3z"
         fill="#fff"
         opacity=".48035"
         id="path11" /><path
         d="m11.817 20h13.29v3h-13.29c-0.90186-0.98418-0.89674-2.0913 0-3z"
         opacity=".34934"
         id="path12" /><path
         d="m11.865 20h14.242v3h-14.242c-0.96644-0.98418-0.96095-2.0913 0-3z"
         fill="none"
         stroke="#000"
         stroke-linejoin="round"
         stroke-width=".9"
         id="path13" /><rect
         x="26.5"
         y="13"
         width="7"
         height="10"
         rx="2"
         ry="2"
         fill="#f55"
         id="rect13" /><path
         d="m29 13h3.7681l0.69571 3h-4.4638z"
         fill="#fff"
         fill-opacity=".18"
         stroke-linejoin="round"
         stroke-width=".9"
         id="path14" /><path
         d="m29 20h4.5218l-0.92762 3h-3.5942z"
         fill-opacity=".1573"
         stroke-linejoin="round"
         stroke-width=".9"
         id="path15" /><rect
         x="26.5"
         y="13"
         width="7"
         height="10"
         rx="2"
         ry="2"
         fill="none"
         stroke="#000"
         stroke-linejoin="round"
         stroke-width=".9"
         id="rect15" /><path
         d="m11.865 13h14.242v3h-14.242c-0.96644-0.98418-0.96095-2.0913 0-3z"
         fill="none"
         stroke="#000"
         stroke-linejoin="round"
         stroke-width=".9"
         id="path16" /><g
         transform="translate(-2,-10)"
         id="g20"><rect
           x="26"
           y="30"
           width="5"
           height="3"
           fill="#b3b3b3"
           id="rect16" /><rect
           x="26"
           y="28"
           width="5"
           height="2.5"
           fill="#ccc"
           id="rect17" /><rect
           x="26"
           y="25"
           width="5"
           height="3"
           fill="#e6e6e6"
           id="rect18" /><rect
           x="26"
           y="23"
           width="5"
           height="2.5"
           fill="#f9f9f9"
           id="rect19" /><rect
           x="26"
           y="23"
           width="5"
           height="10"
           fill="none"
           stroke="#000"
           stroke-linejoin="round"
           stroke-width=".9"
           id="rect20" /></g></g></marker></defs>





































































































<g
   id="g24"
   transform="matrix(0.96386201,0,0,0.96386201,0.03473552,-0.01325871)"><path
     d="M 1.7988,1.447 1.2396,1.08013 C 1.270266,0.982619 1.275759,0.8733 1.255208,0.77512 1.185564,0.44241 0.863198,0.23092 0.531538,0.30035 0.367288,0.32904 0.228748,0.42636 0.142838,0.5582 0.056928,0.69004 0.023658,0.85642 0.057905,1.02005 c 0.069644,0.33271 0.39201,0.5442 0.72367,0.47477 0.1033,-0.021624 0.19546,-0.069382 0.27762,-0.13782 l 0.5592,0.36687 C 1.657868,1.749767 1.699353,1.758162 1.742845,1.749057 1.786342,1.739947 1.820976,1.715622 1.846745,1.676068 1.872517,1.636514 1.880836,1.59492 1.871703,1.551288 1.862573,1.507654 1.838265,1.472889 1.798793,1.446998 Z"
     fill="#3f51b5"
     stroke-width="0.055637"
     id="path21" /><path
     d="M 0.55327,0.40401 C 0.41734,0.432463 0.30914,0.51204 0.23498,0.61866 0.167396,0.72959 0.138142,0.86097 0.166685,0.99732 0.223771,1.27003 0.486925,1.44267 0.758775,1.38577 0.856643,1.365284 0.943365,1.318664 1.008065,1.24819 1.012355,1.2416 1.022094,1.233868 1.026389,1.227275 1.030679,1.220685 1.034979,1.214091 1.039276,1.207498 1.047866,1.194314 1.061895,1.17999 1.070485,1.166806 1.087667,1.140437 1.103706,1.108613 1.114309,1.077927 1.151554,0.984733 1.159331,0.886317 1.13878,0.788147 1.088272,0.519757 0.82512,0.347107 0.55327,0.404017 Z"
     fill="#ffc10a"
     stroke-width="0.055637"
     id="path22" /><g
     id="g23"
     transform="matrix(1.06431,0,0,1.06431,2.6706136,0.45084494)"><path
       d="m -1.7146868,0.27166201 0.4106309,-0.35620981 0.080408,0.09269319 -0.4106309,0.3562098 c -0.054245,-0.006237 -0.08376,-0.0405812 -0.080408,-0.0926932 z"
       opacity="0.34934"
       id="path12-1-8"
       style="opacity:1;fill:#ababab;fill-opacity:1;stroke-width:0.0409067;stroke-dasharray:none" /><path
       d="m -1.7208711,0.26632382 -0.2167356,0.2797562 0.1358741,-0.36592825 z"
       fill="#ffeadb"
       id="path1-9"
       style="stroke-width:0.0405564" /><path
       d="m -1.6079336,0.3674883 0.4363162,-0.37849112 0.079727,0.09190764 -0.4363162,0.37849112 c -0.055763,-0.004467 -0.085017,-0.0385309 -0.079727,-0.0919076 z"
       fill="context-stroke"
       id="path2-4"
       style="stroke-width:0.0405564" /><path
       d="m -1.7160132,0.24648617 0.438093,-0.38003251 0.1063028,0.12254352 -0.438093,0.38003251 c -0.068968,-0.004503 -0.111311,-0.0527033 -0.1063028,-0.12254352 z"
       fill="context-stroke"
       stroke-width="0"
       id="path3-8" /><path
       d="m -1.6925174,0.33348321 -0.245087,0.2126056 0.2172564,-0.30658024 z"
       fill="#ffdbc2"
       id="path4-8"
       style="stroke-width:0.0405564" /><path
       d="m -1.5637138,0.46711101 -0.373901,0.0790029 0.3177559,-0.17506173 z"
       fill="#f5ad7a"
       id="path5-2"
       style="stroke-width:0.0405564" /><path
       d="M -1.6034149,0.37430644 -1.9376044,0.54608881 -1.6978325,0.32735603 Z"
       fill="#fcc39c"
       id="path6-4"
       style="stroke-width:0.0405564" /><path
       d="m -1.7943617,0.15338262 0.4367144,-0.3788366 0.079727,0.0919076 -0.4367144,0.3788366 c -0.05711,-0.001003 -0.085459,-0.0369986 -0.079727,-0.0919076 z"
       fill="context-stroke"
       stroke-width="0"
       id="path7-5" /><path
       d="M -1.529003,0.46008691 -1.9376044,0.54608881 -1.79476,0.15372811"
       fill="none"
       stroke="#000000"
       stroke-linejoin="round"
       stroke-width="0.0365008"
       id="path8-5" /><path
       d="m -1.7160132,0.24648617 0.438093,-0.38003251 0.1063028,0.12254352 -0.438093,0.38003251 c -0.068968,-0.004503 -0.111311,-0.0527033 -0.1063028,-0.12254352 z"
       fill="none"
       stroke="#000000"
       stroke-linejoin="round"
       stroke-width="0.0365008"
       id="path9-1" /><path
       d="m -1.8013951,0.51743172 -0.1361987,0.0286693 0.047617,-0.13078486 z"
       id="path10-7"
       style="stroke-width:0.0405564" /><path
       d="m -1.7959242,0.15473798 0.4076411,-0.35361626 0.079727,0.0919076 -0.4076411,0.35361626 c -0.054975,-0.002856 -0.083432,-0.0387573 -0.079727,-0.0919076 z"
       fill="#ffffff"
       opacity="0.48035"
       id="path11-1"
       style="opacity:1;stroke-width:0.0405564" /><path
       d="m -1.6094041,0.36876393 0.4071509,-0.35319105 0.079727,0.09190764 -0.4071509,0.35319105 c -0.053785,-0.006184 -0.08305,-0.0402373 -0.079727,-0.0919076 z"
       opacity="0.34934"
       id="path12-1"
       style="opacity:1;fill:#898989;fill-opacity:1;stroke-width:0.04056;stroke-dasharray:none" /><path
       d="m -1.6079336,0.3674883 0.4363162,-0.37849112 0.079727,0.09190764 -0.4363162,0.37849112 c -0.055763,-0.004467 -0.085017,-0.0385309 -0.079727,-0.0919076 z"
       fill="none"
       stroke="#000000"
       stroke-linejoin="round"
       stroke-width="0.0365008"
       id="path13-5" /><rect
       x="-0.86187798"
       y="-1.0599403"
       width="0.28389511"
       height="0.40556443"
       rx="0.081112884"
       ry="0.081112884"
       fill="#ff5555"
       id="rect13-2"
       transform="rotate(-40.94065)"
       style="stroke-width:0.0405564" /><g
       stroke-linejoin="round"
       stroke-width="0.9"
       id="g16"
       transform="matrix(0.03063588,-0.0265757,0.0265757,0.03063588,-3.5212726,0.16057568)"><path
         d="m 49.429,27.768 h 3.7681 l 0.69571,3 h -4.4638 z"
         fill="#ffffff"
         fill-opacity="0.18"
         id="path14-7" /><path
         d="m 49.429,34.768 h 4.5218 l -0.92762,3 h -3.5942 z"
         fill-opacity="0.1573"
         id="path15-6" /><rect
         x="46.929001"
         y="27.768"
         width="7"
         height="10"
         rx="2"
         ry="2"
         fill="none"
         stroke="#000000"
         id="rect15-1" /><path
         d="m 32.294,27.768 h 14.242 v 3 H 32.294 c -0.96644,-0.98418 -0.96095,-2.0913 0,-3 z"
         fill="none"
         stroke="#000000"
         id="path16-4" /></g><rect
       x="-0.93232447"
       y="-0.77612638"
       width="0.20278221"
       height="0.12166932"
       fill="#b3b3b3"
       id="rect16-2"
       transform="rotate(-40.94065)"
       style="stroke-width:0.0405564" /><rect
       x="-0.93232447"
       y="-0.85723925"
       width="0.20278221"
       height="0.10139111"
       fill="#cccccc"
       id="rect17-3"
       transform="rotate(-40.94065)"
       style="stroke-width:0.0405564" /><rect
       x="-0.93232447"
       y="-0.97890848"
       width="0.20278221"
       height="0.12166932"
       fill="#e6e6e6"
       id="rect18-2"
       transform="rotate(-40.94065)"
       style="stroke-width:0.0405564" /><rect
       x="-0.93232447"
       y="-1.0600214"
       width="0.20278221"
       height="0.10139111"
       fill="#f9f9f9"
       id="rect19-2"
       transform="rotate(-40.94065)"
       style="stroke-width:0.0405564" /><rect
       x="-0.93232447"
       y="-1.0600214"
       width="0.20278221"
       height="0.40556443"
       fill="none"
       stroke="#000000"
       stroke-linejoin="round"
       stroke-width="0.0365008"
       id="rect20-1"
       transform="rotate(-40.94065)" /></g></g></svg>
